<svg width="15" height="15" viewBox="0 0 15 15" fill="none" xmlns="http://www.w3.org/2000/svg">
<path d="M8.125 3.125C9.50625 3.125 10.625 4.24375 10.625 5.625C10.625 6.5625 10.125 7.35625 9.375 7.7875V7.025C9.75625 6.68125 10 6.18125 10 5.625C10 4.5875 9.1625 3.75 8.125 3.75C7.0875 3.75 6.25 4.5875 6.25 5.625C6.25 6.18125 6.49375 6.68125 6.875 7.025V7.7875C6.125 7.35625 5.625 6.5625 5.625 5.625C5.625 4.24375 6.74375 3.125 8.125 3.125ZM12.5 12.8125C12.4812 13.325 12.075 13.7312 11.5625 13.75H8.125C7.8875 13.75 7.6625 13.6562 7.5 13.4812L5 10.8563L5.4625 10.375C5.58125 10.2438 5.75 10.175 5.9375 10.175H6.0625L7.5 11.25V5.625C7.5 5.28125 7.78125 5 8.125 5C8.46875 5 8.75 5.28125 8.75 5.625V8.41875L9.50625 8.5L11.9688 9.86875C12.3 10.0188 12.5 10.35 12.5 10.7125V12.8125ZM12.5 1.25H2.5C1.8125 1.25 1.25 1.8125 1.25 2.5V7.5C1.25 7.83152 1.3817 8.14946 1.61612 8.38388C1.85054 8.6183 2.16848 8.75 2.5 8.75H5V7.5H2.5V2.5H12.5V7.5H11.25V8.75H12.5V8.725L12.525 8.75C13.2063 8.75 13.75 8.18125 13.75 7.5V2.5C13.75 2.16848 13.6183 1.85054 13.3839 1.61612C13.1495 1.3817 12.8315 1.25 12.5 1.25Z" fill="#603BC1"/>
</svg>
